<?xml version="1.0" encoding="UTF-8"?>
<svg id="Capa_2" data-name="Capa 2" xmlns="http://www.w3.org/2000/svg" viewBox="0 0 377.28 518.43">
  <defs>
    <style>
      .cls-1 {
        letter-spacing: 0em;
      }

      .cls-2 {
        letter-spacing: 0em;
      }

      .cls-3 {
        letter-spacing: 0em;
      }

      .cls-4 {
        fill: #fff;
        font-family: IBMPlexSans, 'IBM Plex Sans';
        font-size: 24px;
      }

      .cls-5 {
        letter-spacing: 0em;
      }

      .cls-6 {
        letter-spacing: 0em;
      }

      .cls-7 {
        fill: #f2f2f2;
      }

      .cls-8 {
        letter-spacing: 0em;
      }

      .cls-9 {
        fill: #6ced00;
      }
    </style>
  </defs>
  <g id="Layer_2" data-name="Layer 2">
    <rect class="cls-9" x="0" y="467.93" width="377.28" height="50.5"/>
    <path class="cls-7" d="M376.28,1V517.43H1V130.25C1,95.72,14.44,63.27,38.86,38.86,63.27,14.44,95.72,1,130.25,1h246.03m1-1H130.25C58.31,0,0,58.31,0,130.25v388.18H377.28V0h0Z"/>
    <text class="cls-4" transform="translate(33.58 322.86)"><tspan x="0" y="0">Iniciar tu ne</tspan><tspan class="cls-5" x="129.12" y="0">g</tspan><tspan x="141.65" y="0">ocio Fin</tspan><tspan class="cls-2" x="225.31" y="0">t</tspan><tspan x="233.64" y="0">ech </tspan><tspan x="0" y="28.8">en t</tspan><tspan class="cls-3" x="40.9" y="28.8">r</tspan><tspan x="49.58" y="28.8">es mese</tspan><tspan class="cls-8" x="139.1" y="28.8">s</tspan><tspan x="150.67" y="28.8">, en </tspan><tspan class="cls-1" x="195.33" y="28.8">t</tspan><tspan class="cls-6" x="203.66" y="28.8">oda la </tspan><tspan class="cls-3" x="0" y="57.6">r</tspan><tspan x="8.69" y="57.6">egión.</tspan></text>
    <g>
      <path class="cls-7" d="M187.73,90.74c21.36,.25,41.42,8.56,56.7,23.49l-56.7,56.7V90.74m-1-1.01v83.61l59.12-59.12c-15.13-15.13-36.03-24.49-59.12-24.49h0Z"/>
      <path class="cls-7" d="M185.73,90.74v85.02l1.71-1.71,58.41-58.41c15.16,15.52,23.49,35.97,23.49,57.7,0,45.55-37.06,82.61-82.61,82.61s-82.61-37.06-82.61-82.61,36.52-82.07,81.61-82.6m1-1.01c-46.18,0-83.61,37.43-83.61,83.61s37.43,83.61,83.61,83.61,83.61-37.43,83.61-83.61c0-23.09-9.36-43.99-24.49-59.12l-59.12,59.12V89.73h0Z"/>
    </g>
  </g>
</svg>