<?xml version="1.0" encoding="UTF-8"?>
<svg id="Capa_2" data-name="Capa 2" xmlns="http://www.w3.org/2000/svg" xmlns:xlink="http://www.w3.org/1999/xlink" viewBox="0 0 938.33 174.87">
  <defs>
    <style>
      .cls-1 {
        fill: #f79e1b;
      }

      .cls-2 {
        fill: #ff5f00;
      }

      .cls-3 {
        fill: #eb001b;
      }

      .cls-4 {
        fill: #999;
      }

      .cls-5 {
        fill: url(#linear-gradient);
      }

      .cls-6 {
        fill: #f2f2f2;
      }
    </style>
    <linearGradient id="linear-gradient" x1="575.24" y1="25.01" x2="710.54" y2="160.32" gradientUnits="userSpaceOnUse">
      <stop offset=".42" stop-color="#6ced00"/>
      <stop offset=".63" stop-color="#45c85a"/>
      <stop offset="1" stop-color="#0086ff"/>
    </linearGradient>
  </defs>
  <g id="Layer_2" data-name="Layer 2">
    <g>
      <g>
        <g>
          <path class="cls-6" d="M8.22,87.44v49.29c0,5.31,.41,9.91,1.23,13.79,.82,3.89,2.19,7.09,4.11,9.61,1.92,2.52,4.48,4.39,7.67,5.63,3.2,1.24,7.13,1.85,11.79,1.85s8.56-.62,11.72-1.85c3.15-1.24,5.71-3.11,7.67-5.63,1.96-2.52,3.36-5.72,4.18-9.61,.82-3.89,1.23-8.49,1.23-13.79v-49.29h8.22v47.42c0,7.04-.6,13.07-1.78,18.09-1.19,5.03-3.08,9.16-5.69,12.4-2.6,3.24-6.03,5.64-10.28,7.19-4.25,1.55-9.43,2.33-15.55,2.33s-11.28-.78-15.49-2.33c-4.2-1.55-7.58-3.95-10.14-7.19-2.56-3.24-4.39-7.38-5.48-12.4-1.1-5.02-1.64-11.05-1.64-18.09v-47.42H8.22Z"/>
          <path class="cls-6" d="M97.44,173.23c-2.83,0-4.98-.78-6.44-2.33-1.46-1.55-2.19-3.61-2.19-6.17V87.44h7.81v75.11c0,2.19,1.78,3.97,3.97,3.97h6.86v6.71h-10Z"/>
          <path class="cls-6" d="M133.62,173.23c-2.83,0-4.98-.78-6.44-2.33-1.46-1.56-2.19-3.66-2.19-6.32v-54.8h-12.2v-6.71h7.95c1.92,0,3.22-.39,3.91-1.16,.68-.78,1.03-2.17,1.03-4.18v-10.28h7.13v15.63h15.9v6.71h-15.9v52.77c0,2.19,1.78,3.97,3.97,3.97h10.83v6.71h-13.98Z"/>
          <path class="cls-6" d="M164.72,173.23V103.06h7.81v12.61h.55c1.37-3.29,3.7-6.21,6.99-8.77,3.29-2.56,7.95-3.84,13.98-3.84h4.66v7.67h-6.17c-5.85,0-10.64,1.28-14.39,3.84-3.75,2.56-5.62,6.12-5.62,10.69v47.96h-7.81Z"/>
          <path class="cls-6" d="M258.87,173.23c-3.02,0-5.21-.78-6.58-2.33-1.37-1.55-2.15-3.65-2.33-6.3v-2.47h-.69c-1.55,3.93-4.11,7.04-7.67,9.32-3.56,2.28-8.08,3.43-13.57,3.43-7.4,0-13.11-1.81-17.13-5.43-4.02-3.62-6.03-8.73-6.03-15.33,0-6.23,2.21-11.18,6.65-14.85,4.43-3.67,11.72-5.5,21.86-5.5h16.17v-8.22c0-11.6-5.98-17.4-17.95-17.4-4.66,0-8.54,.98-11.65,2.95-3.11,1.97-5.62,4.77-7.54,8.43l-4.93-4.08c1.92-4.08,4.87-7.43,8.84-10.06,3.97-2.63,9.16-3.94,15.55-3.94,8.22,0,14.53,2.06,18.91,6.18,4.39,4.12,6.58,9.89,6.58,17.3v37.64c0,2.19,1.78,3.97,3.97,3.97h5.49v6.71h-7.95Zm-29.74-5.07c2.83,0,5.48-.37,7.95-1.1,2.47-.73,4.64-1.77,6.51-3.1,1.87-1.33,3.33-2.94,4.39-4.82,1.05-1.88,1.58-4.02,1.58-6.4v-13.08h-16.44c-7.04,0-12.13,1.13-15.28,3.37-3.15,2.25-4.73,5.35-4.73,9.29v3.31c0,4.13,1.46,7.25,4.39,9.36,2.92,2.11,6.8,3.17,11.65,3.17Z"/>
        </g>
        <g>
          <polygon class="cls-6" points="408.89 87.49 408.89 148.33 373.91 87.49 370.29 87.49 356.64 87.49 354.93 87.49 354.93 173.23 370.29 173.23 370.29 112.03 405.48 173.23 408.89 173.23 422.75 173.23 424.25 173.23 424.25 87.49 408.89 87.49"/>
          <polygon class="cls-6" points="508.78 173.23 477.17 130.36 468.4 130.36 506.31 87.49 487.92 87.49 453.95 125.9 453.95 87.49 437.41 87.49 437.41 173.23 453.95 173.23 453.95 146.7 463.15 136.3 490.39 173.23 508.78 173.23"/>
          <path class="cls-6" d="M332.95,130.87c5.44-4.5,8.91-11.3,8.91-18.87h0c0-13.48-11.03-24.5-24.5-24.5h-38.34v85.74h43.55c12.36,0,22.47-10.11,22.47-22.47h0c0-8.61-4.92-16.13-12.08-19.9Zm-37.72-30.6h20.75c6.32,0,11.48,5.17,11.48,11.48s-5.17,11.48-11.48,11.48h-20.75v-22.97Zm21.71,59.2h-21.71v-22.97h21.71c6.32,0,11.48,5.17,11.48,11.48s-5.17,11.48-11.48,11.48Z"/>
        </g>
      </g>
      <g>
        <path class="cls-5" d="M725.1,43.72h0c0-24.05-19.67-43.72-43.72-43.72h-43.72V87.44h-87.44v43.72c0,24.05,19.67,43.72,43.72,43.72h0c24.04,0,43.71-19.67,43.72-43.71v43.71h43.72c24.05,0,43.72-19.67,43.72-43.72h0c0-24.05-19.67-43.72-43.72-43.72,24.05,0,43.72-19.67,43.72-43.72Z"/>
        <circle class="cls-6" cx="593.94" cy="43.72" r="43.72"/>
      </g>
    </g>
    <g>
      <g>
        <rect class="cls-2" x="889.82" y="116.5" width="16.31" height="29.31"/>
        <path class="cls-3" d="M890.86,131.16c0-5.72,2.62-11.12,7.12-14.65-8.09-6.36-19.81-4.96-26.17,3.14-6.36,8.09-4.96,19.81,3.14,26.17,6.76,5.31,16.28,5.31,23.04,0-4.5-3.53-7.12-8.94-7.12-14.65Z"/>
        <path class="cls-1" d="M928.13,131.16c0,10.29-8.34,18.64-18.64,18.64-4.18,0-8.23-1.4-11.52-3.99,8.09-6.36,9.5-18.08,3.13-26.18-.92-1.16-1.97-2.22-3.13-3.13,8.09-6.36,19.81-4.96,26.17,3.14,2.58,3.28,3.99,7.34,3.99,11.52Z"/>
        <path class="cls-1" d="M926.35,142.71v-.6h.24v-.12h-.62v.12h.24v.6h.13Zm1.2,0v-.72h-.19l-.22,.5-.22-.5h-.19v.72h.13v-.55l.2,.47h.14l.2-.47v.55h.13Z"/>
      </g>
      <path class="cls-4" d="M919.81,88.19c9.8,0,17.77,7.97,17.77,17.77v50.39c0,9.8-7.97,17.77-17.77,17.77h-103.98c-9.8,0-17.77-7.97-17.77-17.77v-50.39c0-9.8,7.97-17.77,17.77-17.77h103.98m0-.75h-103.98c-10.23,0-18.52,8.29-18.52,18.52v50.39c0,10.23,8.29,18.52,18.52,18.52h103.98c10.23,0,18.52-8.29,18.52-18.52v-50.39c0-10.23-8.29-18.52-18.52-18.52h0Z"/>
    </g>
  </g>
</svg>